<?xml version="1.0" standalone="no"?>
<!DOCTYPE svg PUBLIC "-//W3C//DTD SVG 20010904//EN"
 "http://www.w3.org/TR/2001/REC-SVG-20010904/DTD/svg10.dtd">
<svg version="1.0" xmlns="http://www.w3.org/2000/svg"
 width="524.000000pt" height="476.000000pt" viewBox="0 0 524.000000 476.000000"
 preserveAspectRatio="xMidYMid meet">

<g transform="translate(0.000000,476.000000) scale(0.100000,-0.100000)"
fill="#000000" stroke="none">
<path d="M2957 4754 c-14 -15 7 -24 54 -24 37 0 49 4 49 15 0 11 -12 15 -48
15 -27 0 -52 -3 -55 -6z"/>
<path d="M3090 4746 c0 -12 11 -16 41 -16 52 0 48 24 -4 28 -28 2 -37 -1 -37
-12z"/>
<path d="M2863 4743 c-13 -2 -23 -11 -23 -19 0 -10 7 -13 28 -8 45 10 52 13
52 24 0 10 -16 11 -57 3z"/>
<path d="M3212 4729 c5 -15 56 -31 71 -22 13 8 -4 20 -42 28 -25 5 -32 4 -29
-6z"/>
<path d="M2745 4706 c-20 -8 -25 -15 -17 -20 15 -9 82 11 82 25 0 13 -29 11
-65 -5z"/>
<path d="M3320 4700 c0 -13 61 -41 72 -34 16 10 7 22 -23 33 -40 14 -49 14
-49 1z"/>
<path d="M2640 4660 c-14 -10 -22 -21 -19 -24 8 -9 79 22 79 34 0 16 -33 11
-60 -10z"/>
<path d="M3430 4657 c0 -18 67 -50 76 -36 7 12 7 12 -33 33 -39 19 -43 20 -43
3z"/>
<path d="M2542 4608 c-22 -13 -30 -24 -24 -30 13 -13 72 20 72 39 0 18 -10 16
-48 -9z"/>
<path d="M3530 4601 c0 -12 62 -51 72 -45 14 9 8 19 -21 37 -32 19 -51 22 -51
8z"/>
<path d="M2450 4542 c-23 -20 -30 -31 -22 -36 16 -10 72 37 63 52 -5 8 -18 3
-41 -16z"/>
<path d="M3630 4537 c0 -16 55 -59 64 -50 7 7 -43 63 -56 63 -4 0 -8 -6 -8
-13z"/>
<path d="M2356 4461 c-19 -20 -24 -31 -16 -36 13 -8 72 44 64 57 -9 14 -19 9
-48 -21z"/>
<path d="M3716 4462 c-7 -11 51 -68 60 -59 7 7 -34 67 -46 67 -5 0 -11 -4 -14
-8z"/>
<path d="M1680 4445 c0 -16 20 -19 58 -9 36 10 25 24 -18 24 -29 0 -40 -4 -40
-15z"/>
<path d="M1790 4450 c0 -11 65 -24 80 -15 5 3 8 11 5 16 -8 12 -85 12 -85 -1z"/>
<path d="M1578 4443 c-26 -7 -22 -23 6 -23 31 0 56 10 56 21 0 9 -31 10 -62 2z"/>
<path d="M1910 4437 c0 -16 67 -29 77 -14 7 12 3 14 -39 22 -30 6 -38 4 -38
-8z"/>
<path d="M1483 4419 c-18 -5 -33 -16 -33 -24 0 -12 6 -12 37 -1 20 7 39 18 41
24 4 14 -1 14 -45 1z"/>
<path d="M2020 4414 c0 -12 73 -35 82 -26 6 6 -3 14 -23 21 -35 12 -59 14 -59
5z"/>
<path d="M2275 4380 c-19 -20 -26 -33 -19 -40 7 -7 20 0 39 20 19 20 26 33 19
40 -7 7 -20 0 -39 -20z"/>
<path d="M1368 4374 c-28 -15 -38 -34 -18 -34 18 0 70 30 70 40 0 14 -20 12
-52 -6z"/>
<path d="M2135 4380 c-3 -5 8 -16 24 -25 33 -17 51 -19 51 -7 0 13 -69 42 -75
32z"/>
<path d="M3790 4373 c0 -4 11 -21 24 -38 30 -37 48 -25 20 12 -21 27 -44 41
-44 26z"/>
<path d="M3071 4347 c-21 -26 -41 -87 -41 -124 1 -65 53 -154 77 -130 3 3 -6
30 -21 58 -32 65 -32 83 -1 145 14 27 25 52 25 57 0 12 -27 8 -39 -6z"/>
<path d="M3655 4351 c-3 -6 4 -25 17 -42 32 -43 32 -125 -1 -169 -16 -23 -20
-35 -12 -43 7 -7 15 -6 26 3 50 41 62 162 23 220 -25 36 -43 47 -53 31z"/>
<path d="M1262 4320 c-42 -26 -32 -48 11 -23 29 18 48 43 30 43 -4 0 -23 -9
-41 -20z"/>
<path d="M3131 4287 c-29 -36 -20 -120 14 -133 23 -9 31 4 17 26 -15 24 -16
76 -2 85 15 9 12 35 -4 35 -7 0 -19 -6 -25 -13z"/>
<path d="M3597 4294 c-3 -3 1 -21 10 -38 14 -30 14 -36 -1 -64 -12 -23 -13
-33 -4 -38 17 -11 48 34 48 70 0 45 -33 89 -53 70z"/>
<path d="M3866 4281 c-8 -12 20 -71 34 -71 15 0 12 22 -9 53 -11 17 -21 25
-25 18z"/>
<path d="M1166 4256 c-38 -32 -25 -53 15 -24 16 12 29 28 29 35 0 18 -11 16
-44 -11z"/>
<path d="M3324 4259 c-43 -22 -54 -59 -54 -189 l0 -122 34 -34 c40 -40 92 -46
143 -14 40 24 53 67 53 175 0 99 -13 148 -47 175 -28 22 -92 26 -129 9z"/>
<path d="M3200 4225 c0 -8 7 -15 15 -15 8 0 15 7 15 15 0 8 -7 15 -15 15 -8 0
-15 -7 -15 -15z"/>
<path d="M3537 4234 c-9 -10 2 -24 19 -24 8 0 14 7 14 15 0 15 -21 21 -33 9z"/>
<path d="M1074 4177 c-17 -15 -24 -28 -20 -36 6 -9 16 -5 37 15 47 45 32 63
-17 21z"/>
<path d="M3910 4175 c0 -12 35 -75 42 -75 11 0 10 25 -4 55 -9 21 -38 36 -38
20z"/>
<path d="M992 4090 c-15 -19 -19 -31 -11 -36 12 -7 60 46 52 58 -7 13 -17 8
-41 -22z"/>
<path d="M3170 4028 c0 -86 15 -132 56 -178 91 -101 255 -89 332 25 25 36 44
119 40 172 -3 34 -6 38 -32 41 -25 3 -28 1 -21 -15 37 -88 -1 -195 -86 -239
-35 -18 -110 -18 -152 0 -62 26 -107 102 -107 183 0 17 5 35 10 38 20 12 10
35 -15 35 -24 0 -25 -2 -25 -62z"/>
<path d="M3960 4061 c0 -19 23 -71 31 -71 12 0 11 22 -1 54 -9 24 -30 36 -30
17z"/>
<path d="M923 3996 c-20 -31 -21 -46 -2 -46 10 0 48 67 42 74 -11 11 -18 6
-40 -28z"/>
<path d="M1231 3976 c-8 -9 -11 -56 -9 -142 l3 -129 48 -3 47 -3 0 -69 c0
-132 63 -235 176 -287 116 -53 271 -22 345 70 19 23 39 15 39 -14 0 -19 2 -19
33 5 22 17 48 26 82 28 l50 3 0 140 0 140 -70 3 -70 3 -20 40 c-56 117 -215
186 -343 150 -31 -9 -32 -9 -32 19 0 52 -19 60 -149 60 -89 0 -121 -3 -130
-14z m257 -133 l3 -123 -56 0 c-42 0 -55 -3 -55 -15 0 -8 -4 -15 -9 -15 -5 0
-14 7 -21 15 -8 10 -30 15 -61 15 l-49 0 0 125 0 126 123 -3 122 -3 3 -122z
m62 17 c-11 -22 -24 -57 -29 -77 -8 -35 -9 -32 -10 30 -1 61 1 68 22 77 37 15
38 12 17 -30z m105 24 c19 -19 42 -73 50 -117 l6 -32 -90 0 c-50 0 -91 3 -91
6 0 3 7 28 15 56 27 89 72 125 110 87z m131 -35 c23 -16 56 -50 73 -76 l32
-48 -48 -3 c-26 -2 -62 -1 -78 2 -27 5 -32 12 -49 71 -10 36 -23 68 -27 71 -5
3 -9 11 -9 19 0 19 51 2 106 -36z m-88 -135 c22 -6 23 -10 20 -98 l-3 -91 -91
-3 c-106 -3 -104 -5 -104 103 0 63 5 78 30 88 21 8 120 8 148 1z m-193 -94 c0
-57 -4 -90 -11 -90 -6 0 -33 7 -60 16 -81 27 -116 73 -79 104 8 7 22 10 30 6
11 -4 15 1 15 19 0 22 5 24 53 28 28 2 52 4 52 5 0 1 0 -38 0 -88z m260 0 c0
-58 -4 -85 -12 -87 -10 -4 -13 18 -13 87 0 69 3 91 13 88 8 -3 12 -30 12 -88z
m273 -47 l3 -123 -54 0 c-36 0 -59 -5 -67 -15 -7 -8 -16 -15 -21 -15 -5 0 -9
7 -9 15 0 11 -12 15 -50 15 l-50 0 0 125 0 126 123 -3 122 -3 3 -122z m-601
-45 l71 -23 17 -60 c9 -33 23 -70 31 -82 17 -27 7 -29 -41 -9 -76 32 -132 93
-164 179 -9 22 -8 28 1 23 7 -2 45 -15 85 -28z m335 -55 c2 -31 7 -39 26 -41
30 -5 28 -16 -7 -42 -31 -21 -101 -53 -106 -48 -2 2 9 40 24 85 19 60 31 83
43 83 12 0 18 -10 20 -37z m-62 12 c0 -8 -9 -39 -21 -70 -24 -63 -57 -92 -87
-76 -19 10 -53 80 -66 134 l-6 27 90 0 c72 0 90 -3 90 -15z"/>
<path d="M1326 3853 c-16 -38 -30 -74 -33 -80 -3 -7 0 -13 6 -13 6 0 16 11 21
25 8 20 16 25 44 25 28 0 35 -4 40 -25 6 -23 26 -36 26 -17 0 19 -57 146 -66
149 -6 2 -23 -27 -38 -64z m51 -19 c-3 -3 -12 -4 -20 -2 -11 2 -12 9 -5 28
l10 25 11 -23 c5 -12 8 -25 4 -28z"/>
<path d="M1900 3640 c0 -16 -7 -20 -30 -20 -16 0 -30 -4 -30 -10 0 -5 6 -10
14 -10 8 0 22 -14 30 -32 15 -29 15 -32 -4 -45 -30 -21 -24 -38 6 -18 24 15
27 15 51 0 32 -22 43 -11 13 13 -22 17 -22 22 -11 50 7 16 22 33 34 38 19 6
18 8 -12 11 -22 3 -35 11 -38 24 -7 25 -23 25 -23 -1z m30 -60 c-9 -17 -30
-28 -30 -16 0 2 -3 11 -6 20 -5 12 0 16 20 16 24 0 25 -2 16 -20z"/>
<path d="M4040 3970 c0 -5 18 -10 40 -10 22 0 40 5 40 10 0 6 -18 10 -40 10
-22 0 -40 -4 -40 -10z"/>
<path d="M4150 3971 c0 -12 26 -21 61 -21 31 0 39 14 13 24 -24 9 -74 7 -74
-3z"/>
<path d="M4270 3952 c0 -12 67 -28 77 -18 10 10 -2 16 -41 23 -23 3 -36 2 -36
-5z"/>
<path d="M4386 3933 c-12 -12 -5 -19 30 -32 36 -13 51 -10 40 7 -8 13 -63 32
-70 25z"/>
<path d="M867 3895 c-20 -43 -21 -45 -4 -45 11 0 37 51 37 73 0 19 -18 3 -33
-28z"/>
<path d="M4490 3880 c0 -10 52 -40 70 -40 20 0 9 20 -20 35 -34 17 -50 19 -50
5z"/>
<path d="M4597 3827 c-6 -16 60 -61 69 -46 3 6 4 11 3 13 -51 37 -67 45 -72
33z"/>
<path d="M822 3795 c-14 -30 -15 -55 -4 -55 10 0 32 45 32 65 0 23 -16 17 -28
-10z"/>
<path d="M4695 3761 c-9 -15 47 -62 59 -50 5 5 8 10 5 11 -2 2 -16 13 -30 26
-17 15 -29 20 -34 13z"/>
<path d="M2649 3728 c-20 -5 -50 -21 -67 -36 -17 -15 -88 -126 -158 -247 -114
-197 -128 -226 -132 -277 -5 -68 19 -120 75 -158 51 -35 147 -36 193 -2 30 23
33 23 65 8 102 -49 359 -44 429 7 17 13 19 38 17 185 -1 42 -3 44 -48 64 -34
15 -76 22 -155 26 -60 3 -107 8 -106 11 2 4 27 49 57 100 46 80 54 101 54 145
0 85 -51 153 -131 176 -42 11 -44 11 -93 -2z m130 -45 c48 -36 66 -71 66 -126
0 -46 -8 -65 -63 -159 l-63 -107 -122 71 c-67 39 -126 74 -130 78 -5 4 20 57
55 116 55 94 70 112 108 132 52 27 108 25 149 -5z m-215 -334 c104 -60 109
-64 84 -74 -53 -21 -58 -32 -58 -117 0 -44 -5 -88 -11 -100 -16 -29 -94 -61
-133 -54 -83 16 -145 98 -131 174 7 37 123 244 134 238 3 -2 55 -32 115 -67z
m335 -83 c-2 -2 -47 -23 -101 -46 -90 -39 -99 -41 -133 -30 -35 11 -54 34 -41
47 15 16 110 32 190 32 49 1 87 -1 85 -3z m117 -21 c44 -18 40 -34 -12 -53
-44 -16 -244 -30 -231 -16 12 14 169 82 190 83 10 1 34 -6 53 -14z m-291 -91
c103 -19 230 -10 308 21 15 6 17 0 17 -58 0 -39 -5 -69 -12 -75 -42 -34 -265
-49 -355 -23 -62 17 -73 33 -73 103 0 53 2 59 18 53 9 -4 53 -13 97 -21z"/>
<path d="M2650 3673 c-23 -9 -60 -45 -60 -60 0 -19 14 -16 35 7 10 11 26 22
36 25 11 4 19 13 19 21 0 15 -5 16 -30 7z"/>
<path d="M2702 3669 c2 -6 8 -10 13 -10 5 0 11 4 13 10 2 6 -4 11 -13 11 -9 0
-15 -5 -13 -11z"/>
<path d="M3363 3711 c-3 -14 -15 -21 -37 -23 -19 -2 -31 -8 -31 -18 0 -12 16
-15 85 -15 73 0 85 2 88 18 3 14 -4 17 -32 17 -29 0 -36 4 -36 20 0 26 -30 26
-37 1z"/>
<path d="M782 3670 c-8 -31 -7 -40 3 -40 7 0 16 11 19 24 3 13 9 31 12 40 4
10 1 16 -9 16 -9 0 -19 -16 -25 -40z"/>
<path d="M4776 3682 c-7 -11 51 -68 60 -59 7 7 -34 67 -46 67 -5 0 -11 -4 -14
-8z"/>
<path d="M767 3593 c-11 -10 -8 -83 3 -83 6 0 10 6 10 14 0 7 3 28 6 45 6 29
-3 40 -19 24z"/>
<path d="M4858 3594 c-9 -14 36 -74 50 -65 8 5 3 17 -16 41 -16 18 -31 29 -34
24z"/>
<path d="M4926 3501 c-9 -14 24 -71 41 -71 11 0 10 6 -1 28 -27 48 -33 55 -40
43z"/>
<path d="M750 3441 c0 -22 5 -43 10 -46 6 -4 10 6 10 24 0 16 3 36 6 45 4 11
1 16 -10 16 -12 0 -16 -10 -16 -39z"/>
<path d="M4980 3391 c0 -24 24 -71 36 -71 18 0 18 2 -3 45 -15 32 -33 47 -33
26z"/>
<path d="M745 3351 c-3 -5 -19 -12 -36 -16 -16 -4 -28 -12 -26 -18 8 -22 87 4
87 28 0 17 -16 20 -25 6z"/>
<path d="M4000 3319 c-38 -15 -68 -48 -76 -83 -3 -17 -21 -48 -40 -68 -36 -41
-62 -114 -45 -131 6 -6 13 5 21 34 33 123 153 181 266 128 52 -25 87 -67 103
-124 17 -62 14 -75 -14 -75 -18 0 -25 5 -25 19 0 10 -9 30 -21 45 -17 21 -19
29 -9 41 18 22 -1 19 -60 -11 -28 -14 -82 -33 -120 -42 -44 -11 -72 -23 -75
-33 -3 -8 -22 -20 -43 -25 -32 -8 -37 -13 -40 -41 -3 -27 2 -34 26 -47 19 -10
31 -26 35 -45 4 -16 22 -46 42 -66 30 -30 36 -41 33 -72 -3 -35 -5 -37 -83
-69 -107 -45 -115 -56 -115 -160 0 -49 4 -84 10 -84 6 0 10 33 10 78 0 91 7
103 73 131 l47 20 0 -44 c0 -41 -2 -45 -24 -45 -48 0 -56 -9 -56 -65 0 -53 18
-84 40 -70 8 5 6 11 -5 19 -12 8 -16 24 -13 51 l3 40 70 0 70 0 3 -40 c3 -28
-1 -43 -14 -52 -22 -16 -9 -31 14 -17 21 13 29 99 11 120 -6 8 -24 14 -40 14
-27 0 -29 3 -29 40 l0 41 52 -36 c29 -19 57 -35 63 -35 6 0 34 16 63 35 l52
36 0 -54 c0 -42 -5 -58 -20 -72 -28 -25 -22 -65 11 -84 24 -13 29 -13 53 2 31
21 34 57 6 82 -16 14 -20 31 -20 76 l0 58 48 -20 c65 -28 72 -40 72 -131 0
-45 4 -78 10 -78 6 0 10 35 10 84 0 104 -7 114 -115 159 l-80 34 -3 41 c-2 32
1 43 17 51 24 13 61 72 61 97 0 13 11 24 31 31 l30 12 -6 63 c-9 98 -24 144
-61 187 -19 21 -34 45 -34 53 0 27 -42 80 -75 94 -39 16 -60 17 -95 3z m85
-23 c37 -16 85 -86 49 -72 -37 15 -123 18 -155 7 -18 -6 -34 -10 -35 -8 -10 9
27 55 56 69 42 22 42 22 85 4z m79 -276 c8 -26 18 -36 36 -38 54 -8 69 -49 21
-58 -24 -5 -30 -12 -35 -43 -7 -45 -56 -95 -106 -109 -74 -19 -165 35 -176
108 -5 32 -11 39 -35 44 -46 9 -31 56 18 56 12 0 27 8 32 19 7 12 34 25 78 35
38 10 79 23 93 31 33 18 58 2 74 -45z m-54 -305 c0 -23 7 -39 21 -48 20 -14
19 -16 -32 -48 -29 -19 -57 -33 -62 -31 -6 2 -30 17 -54 34 -41 30 -42 32 -23
45 13 9 20 26 20 47 l0 34 65 0 65 1 0 -34z m89 -229 c25 -30 -16 -67 -44 -40
-11 12 -12 20 -5 35 12 22 33 25 49 5z"/>
<path d="M3965 2957 c-4 -10 -5 -21 -1 -24 10 -10 18 4 13 24 -4 17 -4 17 -12
0z"/>
<path d="M4110 2950 c0 -19 3 -21 12 -12 9 9 9 15 0 24 -9 9 -12 7 -12 -12z"/>
<path d="M3990 2869 c0 -10 28 -19 55 -19 27 0 55 9 55 19 0 3 -25 6 -55 6
-30 0 -55 -3 -55 -6z"/>
<path d="M602 3292 c-18 -8 -31 -20 -29 -25 3 -10 4 -10 45 5 17 7 32 18 32
25 0 16 -7 16 -48 -5z"/>
<path d="M5024 3274 c3 -9 9 -27 12 -40 3 -13 13 -24 21 -24 10 0 13 6 9 16
-3 9 -9 27 -12 40 -3 13 -13 24 -21 24 -10 0 -13 -6 -9 -16z"/>
<path d="M502 3238 c-54 -34 -38 -53 17 -20 18 11 27 23 23 29 -5 9 -17 6 -40
-9z"/>
<path d="M400 3165 c-13 -14 -21 -28 -17 -31 9 -9 68 36 62 47 -10 14 -20 11
-45 -16z"/>
<path d="M5057 3148 c6 -35 19 -55 28 -46 11 11 -7 78 -21 78 -10 0 -12 -9 -7
-32z"/>
<path d="M317 3092 c-30 -31 -34 -42 -14 -42 21 0 62 49 51 60 -7 7 -19 1 -37
-18z"/>
<path d="M5074 3044 c3 -9 6 -27 6 -40 0 -13 5 -24 10 -24 6 0 10 18 10 40 0
30 -4 40 -16 40 -11 0 -14 -5 -10 -16z"/>
<path d="M241 3004 c-22 -28 -27 -44 -13 -44 9 0 33 25 46 47 14 24 -13 22
-33 -3z"/>
<path d="M171 2905 c-25 -43 -25 -45 -6 -45 19 0 50 59 37 72 -6 6 -17 -4 -31
-27z"/>
<path d="M5080 2900 c0 -43 14 -54 24 -17 10 37 7 57 -9 57 -11 0 -15 -11 -15
-40z"/>
<path d="M3642 2908 c-20 -20 -15 -122 8 -151 31 -40 26 -62 -20 -81 -45 -18
-53 -36 -48 -112 4 -71 22 -60 26 16 3 65 11 80 45 80 27 0 24 -66 -4 -73 -16
-4 -20 -12 -17 -38 2 -18 9 -34 17 -37 10 -3 11 3 6 27 -6 30 -5 31 25 31 31
0 32 -2 27 -30 -7 -32 1 -38 21 -18 21 21 14 58 -13 68 -32 12 -36 55 -5 45
12 -4 31 1 48 13 15 10 33 17 40 15 17 -7 15 16 -3 23 -21 8 -19 30 5 62 25
33 31 131 11 156 -17 20 -150 23 -169 4z m156 -40 c4 -34 -9 -35 -63 -8 -35
18 -41 18 -62 5 -21 -14 -23 -14 -23 3 0 29 10 33 80 30 63 -3 65 -4 68 -30z
m-45 -38 c53 -16 59 -31 25 -67 -30 -33 -80 -31 -107 3 -12 15 -21 33 -21 42
0 17 30 43 45 39 6 -2 31 -9 58 -17z m7 -129 c0 -10 -7 -24 -16 -32 -20 -16
-48 -1 -52 30 -3 18 1 21 32 21 29 0 36 -4 36 -19z"/>
<path d="M4285 2900 c-27 -30 -25 -112 4 -150 25 -34 27 -56 6 -64 -21 -8 -19
-26 3 -26 10 0 27 -7 40 -15 16 -12 27 -13 41 -5 11 5 22 10 25 10 13 0 5 -55
-10 -71 -18 -20 -12 -54 11 -63 39 -14 69 32 41 63 -17 19 -22 81 -7 81 34 0
41 -13 41 -75 0 -35 5 -67 10 -70 7 -5 10 19 8 71 l-3 77 -35 12 c-41 14 -51
46 -24 76 10 11 19 41 22 73 6 75 -15 96 -96 96 -47 0 -63 -4 -77 -20z m145
-19 c5 -11 10 -36 10 -56 0 -71 -83 -112 -130 -65 -23 23 -28 108 -8 128 7 7
36 12 65 12 41 0 54 -4 63 -19z m-30 -180 c0 -26 -25 -44 -50 -36 -13 4 -20
15 -20 31 0 21 5 24 35 24 28 0 35 -4 35 -19z m38 -149 c2 -7 -6 -12 -17 -12
-21 0 -27 11 -14 24 9 9 26 2 31 -12z"/>
<path d="M115 2798 c-13 -32 -12 -48 4 -48 6 0 31 57 31 73 0 20 -23 3 -35
-25z"/>
<path d="M5076 2814 c-9 -24 -7 -64 3 -64 11 0 21 25 21 56 0 27 -15 32 -24 8z"/>
<path d="M1707 2754 c-12 -12 -8 -692 3 -699 6 -4 17 -1 26 5 22 19 16 693 -6
698 -9 1 -19 0 -23 -4z"/>
<path d="M75 2695 c-11 -25 -13 -41 -6 -48 6 -6 15 3 26 28 10 26 12 42 5 49
-6 6 -15 -3 -25 -29z"/>
<path d="M1942 2708 c-9 -9 -12 -86 -12 -304 0 -298 4 -333 37 -289 18 26 19
563 0 588 -10 14 -15 15 -25 5z"/>
<path d="M522 2690 c-18 -11 -39 -20 -47 -20 -8 0 -29 -13 -46 -28 -39 -34
-49 -98 -26 -155 9 -21 12 -39 6 -42 -18 -12 -10 -74 11 -87 11 -7 20 -18 20
-24 0 -6 11 -28 26 -49 16 -25 24 -48 22 -68 -3 -27 -8 -33 -47 -44 -25 -7
-49 -17 -55 -23 -5 -5 -18 -10 -28 -10 -35 0 -96 -39 -119 -76 -18 -29 -23
-56 -27 -135 l-5 -99 372 0 371 0 0 85 c0 55 -6 99 -16 126 -20 48 -84 99
-125 99 -15 0 -31 4 -34 10 -3 5 -25 15 -48 21 -61 16 -74 47 -38 97 10 15 22
38 26 52 4 14 16 31 26 38 21 14 26 71 8 89 -7 7 -7 24 2 56 6 26 8 63 5 82
-19 98 -149 157 -234 105z m144 -20 c46 -23 74 -67 74 -117 0 -51 -14 -58 -48
-24 -25 25 -39 31 -74 31 -24 0 -60 9 -81 20 -47 25 -68 16 -93 -40 -20 -45
-34 -37 -34 18 0 38 45 92 77 92 10 0 29 9 43 20 32 25 83 25 136 0z m-47
-137 c55 -6 91 -36 91 -74 0 -10 9 -23 20 -29 25 -13 25 -25 1 -49 -10 -10
-22 -30 -26 -43 -20 -60 -67 -98 -125 -98 -51 0 -90 27 -112 78 -12 26 -27 51
-34 55 -19 11 -18 53 1 61 10 3 15 19 15 43 0 21 9 53 20 70 l20 33 38 -20
c22 -12 63 -23 91 -27z m37 -333 c10 -32 5 -91 -8 -107 -6 -8 -34 -13 -69 -13
-66 0 -79 12 -79 75 0 62 10 70 84 70 61 0 66 -2 72 -25z m-176 -47 c0 -5 9
-62 19 -128 10 -66 17 -122 16 -124 -2 -2 -24 28 -48 65 -39 62 -43 71 -31 90
12 17 12 23 -1 40 -20 26 -19 52 3 57 28 8 42 7 42 0z m245 -3 c25 -10 25 -10
9 -41 -11 -23 -13 -38 -6 -53 7 -17 1 -34 -33 -89 -24 -38 -45 -65 -47 -60 -7
13 34 253 42 253 5 0 20 -4 35 -10z m-313 -55 c8 -18 8 -28 -1 -39 -11 -13 -3
-31 43 -105 31 -50 56 -95 56 -101 0 -7 -47 -10 -137 -8 l-138 3 -3 62 c-3 73
10 130 39 167 33 42 49 35 37 -16 -6 -24 -17 -50 -24 -59 -16 -18 -18 -67 -4
-89 8 -13 11 -13 22 -1 10 11 10 14 1 18 -16 6 -17 45 -1 61 7 7 24 12 40 12
30 0 52 -28 42 -54 -4 -11 -1 -16 10 -16 36 0 7 73 -35 91 -31 12 -36 33 -17
74 15 34 54 34 70 0z m406 -19 c11 -36 11 -41 -9 -62 -28 -30 -19 -71 16 -80
46 -12 73 39 41 75 -15 17 -38 92 -31 99 8 8 54 -27 72 -55 14 -21 18 -48 18
-117 l0 -91 -137 -3 c-89 -2 -138 1 -138 8 0 5 25 50 56 100 47 75 54 93 44
105 -10 12 -10 21 -1 41 17 39 53 29 69 -20z m-174 -53 c-31 -192 -26 -178
-61 -181 -37 -4 -37 -5 -57 131 l-13 87 69 0 68 0 -6 -37z m219 -35 c7 -21 -4
-38 -23 -38 -23 0 -34 16 -26 35 7 18 43 20 49 3z"/>
<path d="M1475 2698 c-3 -7 -4 -144 -3 -303 3 -282 4 -290 23 -290 20 0 20 7
20 300 0 278 -1 300 -18 303 -9 2 -19 -3 -22 -10z"/>
<path d="M5052 2678 c-5 -18 -5 -37 -1 -42 12 -13 16 -7 24 37 9 47 -11 51
-23 5z"/>
<path d="M35 2574 c-11 -62 17 -59 30 4 5 25 3 32 -8 32 -9 0 -17 -14 -22 -36z"/>
<path d="M5020 2564 c-12 -36 -7 -55 10 -38 5 5 13 24 16 42 9 44 -11 41 -26
-4z"/>
<path d="M1247 2504 c-11 -12 -8 -192 3 -199 6 -4 18 -1 26 6 22 18 16 192 -6
197 -9 1 -19 0 -23 -4z"/>
<path d="M2083 2455 c0 -33 2 -45 4 -27 2 18 2 45 0 60 -2 15 -4 0 -4 -33z"/>
<path d="M2167 2503 c-4 -3 -7 -48 -7 -99 0 -97 11 -123 37 -89 13 19 19 149
7 179 -6 16 -26 21 -37 9z"/>
<path d="M16 2484 c-9 -24 -7 -74 3 -74 8 0 21 47 21 76 0 19 -16 18 -24 -2z"/>
<path d="M4976 2455 c-16 -38 -12 -67 7 -59 7 2 13 14 13 27 1 12 5 32 9 45
12 37 -13 26 -29 -13z"/>
<path d="M2081 2374 c0 -11 3 -14 6 -6 3 7 2 16 -1 19 -3 4 -6 -2 -5 -13z"/>
<path d="M0 2340 c0 -29 4 -40 15 -40 11 0 15 11 15 40 0 29 -4 40 -15 40 -11
0 -15 -11 -15 -40z"/>
<path d="M2782 2355 c-17 -14 -40 -25 -52 -25 -34 0 -80 -52 -80 -91 0 -18 14
-84 31 -147 25 -95 29 -119 19 -137 -10 -18 -9 -34 4 -78 22 -74 88 -148 161
-178 l54 -22 3 -75 c2 -49 7 -77 16 -80 9 -3 12 20 12 91 l0 95 -32 7 c-52 12
-102 41 -136 79 -35 41 -68 134 -52 150 14 14 24 0 39 -52 14 -51 67 -113 115
-136 47 -22 121 -20 172 5 55 26 110 87 94 103 -8 8 -19 1 -43 -26 -40 -46
-85 -68 -137 -68 -81 0 -149 53 -171 133 -7 23 -22 51 -35 62 -16 14 -32 54
-53 129 -38 133 -39 169 -9 190 31 22 51 20 78 -9 30 -32 63 -32 89 1 27 34
26 50 -4 79 -30 31 -46 31 -83 0z m72 -27 c8 -14 7 -21 -6 -34 -30 -30 -75 9
-48 42 16 18 39 15 54 -8z"/>
<path d="M3072 2364 c-46 -32 -18 -114 39 -114 9 0 27 11 40 25 29 30 62 32
89 5 27 -27 25 -50 -10 -182 -24 -87 -36 -117 -55 -131 -14 -10 -25 -27 -25
-38 0 -25 14 -24 33 4 27 40 32 -6 7 -67 -33 -83 -64 -109 -188 -157 -23 -9
-23 -10 -19 -157 3 -117 7 -152 20 -173 37 -56 118 -66 168 -21 30 27 33 34
39 119 9 129 46 175 153 187 36 5 47 3 47 -8 0 -9 -16 -15 -46 -19 -80 -9
-124 -68 -124 -169 0 -84 -22 -126 -82 -156 -35 -18 -55 -22 -83 -16 -69 13
-125 82 -125 154 0 20 -5 30 -15 30 -23 0 -19 -70 8 -121 43 -81 134 -117 213
-84 81 34 114 87 114 185 0 101 31 140 112 140 37 -1 46 -5 63 -32 76 -118
265 -65 267 74 2 86 -62 151 -147 151 -49 0 -105 -30 -125 -68 -10 -20 -21
-25 -49 -25 -132 0 -210 -83 -211 -223 0 -59 -3 -71 -25 -92 -30 -31 -73 -32
-109 -4 -26 20 -26 21 -26 158 l0 137 55 23 c35 15 69 39 94 68 56 63 89 171
61 199 -6 6 -3 30 9 69 44 147 54 204 41 236 -13 30 -55 59 -86 59 -9 0 -27
11 -40 25 -27 29 -50 32 -82 9z m62 -37 c8 -12 7 -21 -5 -32 -21 -21 -49 -9
-49 20 0 36 34 44 54 12z m507 -595 c24 -21 32 -38 36 -75 5 -43 3 -49 -30
-82 -29 -29 -42 -35 -79 -35 -53 0 -85 21 -104 67 -45 108 89 203 177 125z"/>
<path d="M3543 1734 c-23 -10 -14 -34 12 -34 24 0 65 -31 65 -49 0 -5 -9 -19
-19 -32 -16 -20 -23 -22 -47 -14 -21 8 -30 19 -34 40 -6 34 -33 41 -39 10 -9
-50 49 -104 104 -96 20 3 75 41 59 41 -4 0 -3 5 4 12 43 43 -47 146 -105 122z"/>
<path d="M5000 2361 c0 -14 34 -71 42 -71 17 0 15 18 -4 48 -19 31 -38 42 -38
23z"/>
<path d="M2082 2315 c0 -16 2 -22 5 -12 2 9 2 23 0 30 -3 6 -5 -1 -5 -18z"/>
<path d="M5057 2264 c-7 -7 32 -74 44 -74 14 0 11 19 -8 51 -17 29 -25 34 -36
23z"/>
<path d="M0 2220 c0 -29 4 -40 15 -40 11 0 15 11 15 40 0 29 -4 40 -15 40 -11
0 -15 -11 -15 -40z"/>
<path d="M5110 2151 c0 -18 22 -71 30 -71 16 0 17 15 4 48 -13 29 -34 44 -34
23z"/>
<path d="M15 2108 c13 -63 38 -66 28 -5 -3 23 -11 37 -20 37 -11 0 -13 -8 -8
-32z"/>
<path d="M5150 2041 c0 -19 23 -71 31 -71 12 0 11 22 -1 54 -9 24 -30 36 -30
17z"/>
<path d="M44 1999 c3 -17 6 -35 6 -40 0 -5 7 -9 15 -9 18 0 18 7 4 49 -14 41
-33 41 -25 0z"/>
<path d="M5184 1909 c3 -17 6 -35 6 -40 0 -5 7 -9 15 -9 12 0 14 7 9 28 -10
45 -13 52 -25 52 -8 0 -9 -11 -5 -31z"/>
<path d="M76 1911 c-9 -14 17 -71 32 -71 9 0 12 6 8 16 -3 9 -9 27 -12 40 -6
24 -18 31 -28 15z"/>
<path d="M5200 1780 c0 -29 4 -40 15 -40 11 0 15 11 15 40 0 29 -4 40 -15 40
-11 0 -15 -11 -15 -40z"/>
<path d="M120 1800 c0 -6 7 -25 16 -42 10 -20 19 -27 26 -20 6 6 4 20 -6 41
-16 30 -36 42 -36 21z"/>
<path d="M4505 1767 c-119 -31 -199 -96 -252 -205 -36 -72 -38 -81 -37 -172 0
-115 26 -181 101 -261 187 -200 513 -144 631 108 24 51 27 70 27 158 0 93 -2
105 -32 166 -79 159 -271 249 -438 206z m237 -46 c70 -34 130 -92 169 -163 32
-60 34 -68 34 -163 0 -91 -3 -105 -30 -158 -108 -214 -383 -267 -558 -107
-131 120 -154 320 -54 466 43 61 89 99 163 130 51 21 71 24 144 21 62 -3 98
-10 132 -26z"/>
<path d="M4498 1558 l-3 -63 -63 -3 -63 -3 3 -97 3 -97 62 -3 62 -3 3 -62 3
-62 90 0 90 0 3 62 3 62 62 3 62 3 3 97 3 97 -63 3 -63 3 -3 63 -3 62 -94 0
-94 0 -3 -62z m174 -30 l3 -63 63 -3 63 -3 -3 -67 -3 -67 -62 -3 -62 -3 -3
-62 c-2 -34 -6 -61 -10 -59 -5 1 -37 2 -73 2 l-65 0 0 60 0 60 -60 0 -60 0 0
70 0 69 58 3 57 3 3 63 3 62 74 0 74 0 3 -62z"/>
<path d="M176 1702 c-2 -4 5 -23 16 -41 27 -42 46 -26 21 17 -18 32 -28 38
-37 24z"/>
<path d="M5206 1703 c-3 -3 -6 -24 -6 -45 0 -27 4 -38 15 -38 11 0 15 11 15
39 0 38 -10 57 -24 44z"/>
<path d="M240 1603 c0 -19 48 -66 59 -59 9 6 5 16 -15 37 -27 28 -44 37 -44
22z"/>
<path d="M5195 1554 c-3 -20 -4 -39 0 -42 9 -9 22 11 28 46 5 23 3 32 -7 32
-8 0 -17 -16 -21 -36z"/>
<path d="M1610 1573 c-34 -5 -100 -34 -100 -45 0 -12 18 -10 52 8 46 24 135
15 186 -18 71 -48 82 -86 82 -291 0 -133 -4 -186 -14 -212 -8 -19 -18 -35 -21
-35 -3 0 -24 9 -45 20 -39 20 -40 21 -40 75 0 43 4 56 19 64 29 16 61 91 61
144 0 46 -1 48 -40 63 -37 15 -65 41 -97 90 -13 19 -13 19 -25 0 -36 -54 -72
-86 -104 -92 l-34 -6 0 -62 c0 -66 22 -116 60 -136 18 -10 21 -19 18 -63 -3
-48 -5 -53 -43 -74 -22 -13 -43 -23 -47 -23 -30 -1 -42 387 -13 456 21 51 6
65 -19 18 -17 -34 -21 -61 -24 -201 -4 -145 1 -198 23 -269 5 -17 1 -23 -23
-33 -17 -7 -41 -24 -54 -38 -21 -23 -23 -33 -23 -136 0 -150 18 -153 25 -5 3
62 8 118 12 124 7 11 82 54 93 54 3 0 5 -38 5 -85 0 -61 -5 -93 -16 -110 -20
-30 -4 -65 29 -65 43 0 63 44 32 70 -12 10 -15 36 -15 113 0 56 4 97 8 91 5
-5 30 -72 57 -149 57 -169 58 -171 71 -153 14 19 37 89 31 95 -10 9 -27 -8
-27 -28 0 -37 -16 -19 -34 39 -10 31 -21 63 -24 70 -3 10 7 12 44 10 41 -3 49
-6 46 -22 -2 -11 2 -16 9 -14 7 2 24 39 37 81 14 42 29 77 34 77 4 0 8 -26 8
-58 0 -47 -4 -60 -20 -70 -19 -11 -20 -21 -18 -99 3 -100 23 -126 23 -31 0 61
1 63 25 63 24 0 25 -3 25 -63 0 -95 20 -69 23 31 2 77 0 89 -18 104 -14 13
-20 30 -20 60 0 24 2 43 5 43 13 0 72 -34 93 -53 20 -19 22 -29 22 -128 0 -61
4 -110 10 -114 6 -4 10 33 10 105 0 131 -10 158 -69 185 -46 20 -46 20 -26 55
19 34 21 393 2 436 -42 97 -131 150 -227 137z m57 -193 c14 -17 43 -40 65 -51
40 -21 40 -21 36 -70 -16 -166 -242 -162 -256 4 -4 53 -4 54 25 60 17 3 44 22
64 46 19 21 35 40 37 40 2 1 15 -13 29 -29z m23 -317 c0 -42 4 -55 22 -67 22
-15 22 -16 4 -71 l-17 -55 -58 0 -58 0 -21 53 -20 52 24 23 c19 18 24 33 24
70 l0 47 50 0 50 0 0 -52z m115 -253 c0 -10 -8 -14 -25 -12 -31 5 -34 8 -25
22 10 16 50 8 50 -10z m-292 -74 c7 -16 -1 -26 -20 -26 -7 0 -13 9 -13 20 0
23 25 27 33 6z"/>
<path d="M1600 1198 c0 -15 35 -25 58 -17 34 13 26 24 -18 24 -22 0 -40 -3
-40 -7z"/>
<path d="M324 1519 c-9 -15 43 -66 55 -54 6 7 -1 20 -19 37 -18 17 -32 23 -36
17z"/>
<path d="M5177 1463 c-3 -5 -8 -23 -12 -40 -5 -25 -3 -33 8 -33 12 0 27 39 27
71 0 11 -17 12 -23 2z"/>
<path d="M405 1441 c-7 -12 54 -63 66 -55 5 3 9 8 9 12 0 13 -69 52 -75 43z"/>
<path d="M506 1373 c-11 -11 -6 -19 25 -37 20 -12 34 -15 41 -8 6 6 -3 16 -26
30 -19 11 -37 18 -40 15z"/>
<path d="M5135 1324 c-18 -44 -18 -44 -1 -44 12 0 36 47 36 71 0 22 -21 5 -35
-27z"/>
<path d="M605 1309 c-8 -12 -8 -12 31 -32 30 -15 44 -14 44 4 0 8 -52 39 -64
39 -3 0 -8 -5 -11 -11z"/>
<path d="M710 1255 c0 -8 5 -15 10 -15 6 0 10 -13 10 -30 0 -20 5 -30 15 -30
30 0 2 89 -27 90 -5 0 -8 -7 -8 -15z"/>
<path d="M5095 1220 c-18 -34 -19 -50 -4 -50 8 0 39 58 39 75 0 16 -22 1 -35
-25z"/>
<path d="M740 1100 c0 -26 5 -40 13 -40 9 0 11 12 9 40 -2 22 -8 40 -13 40 -5
0 -9 -18 -9 -40z"/>
<path d="M5037 1108 c-11 -18 -14 -35 -9 -40 6 -6 18 5 31 27 25 42 25 45 9
45 -7 0 -21 -14 -31 -32z"/>
<path d="M4976 1015 c-32 -49 -11 -64 23 -16 25 34 26 41 7 41 -7 0 -21 -11
-30 -25z"/>
<path d="M750 1016 c0 -29 13 -76 21 -76 10 0 12 34 3 68 -7 24 -24 30 -24 8z"/>
<path d="M2995 981 c-69 -17 -139 -72 -172 -135 -29 -56 -34 -105 -16 -190 14
-66 14 -86 4 -125 -11 -40 -10 -47 5 -58 22 -16 70 -16 109 1 21 9 40 10 65 3
78 -21 185 10 247 72 70 70 92 187 53 280 -49 113 -179 180 -295 152z m151
-50 c22 -10 57 -38 77 -61 63 -74 73 -153 31 -239 -49 -97 -142 -143 -247
-122 -50 10 -65 10 -103 -5 -55 -21 -67 -12 -53 38 7 28 6 52 -6 97 -36 142 1
230 130 300 32 17 125 13 171 -8z"/>
<path d="M2912 728 c2 -15 10 -23 23 -23 13 0 21 8 23 23 3 18 -1 22 -23 22
-22 0 -26 -4 -23 -22z"/>
<path d="M3027 737 c-8 -21 8 -39 29 -35 11 2 20 13 22 26 3 18 -1 22 -21 22
-14 0 -27 -6 -30 -13z"/>
<path d="M3146 741 c-11 -18 6 -42 28 -39 29 4 29 42 -1 46 -11 2 -24 -1 -27
-7z"/>
<path d="M4902 927 c-22 -23 -29 -47 -14 -47 14 0 63 56 55 63 -11 11 -18 8
-41 -16z"/>
<path d="M774 893 c2 -10 7 -28 11 -40 10 -36 28 -28 21 8 -3 17 -6 35 -6 40
0 5 -7 9 -16 9 -10 0 -14 -6 -10 -17z"/>
<path d="M4816 841 c-15 -16 -23 -31 -18 -35 13 -8 62 32 62 50 0 21 -13 17
-44 -15z"/>
<path d="M807 793 c-6 -12 22 -73 33 -73 13 0 13 6 -2 47 -12 32 -22 41 -31
26z"/>
<path d="M4728 776 c-30 -23 -35 -36 -15 -36 22 1 63 38 52 49 -7 6 -19 2 -37
-13z"/>
<path d="M3385 740 c-3 -5 3 -23 14 -39 12 -16 26 -52 33 -79 9 -43 8 -61 -7
-117 -12 -44 -15 -80 -11 -110 9 -56 -7 -66 -61 -38 -34 18 -40 18 -81 4 -54
-17 -135 -5 -181 29 -36 25 -54 26 -49 3 9 -47 167 -89 238 -65 26 9 38 8 63
-4 31 -16 100 -15 118 3 4 4 1 28 -7 53 -14 41 -14 50 2 108 21 79 14 156 -18
214 -24 43 -42 56 -53 38z"/>
<path d="M4618 717 c-30 -12 -37 -27 -13 -27 20 0 65 22 65 32 0 10 -18 9 -52
-5z"/>
<path d="M850 680 c0 -18 30 -70 40 -70 13 0 13 4 -7 45 -16 34 -33 46 -33 25z"/>
<path d="M4513 678 c-34 -11 -45 -28 -19 -28 24 0 66 19 66 30 0 12 -4 11 -47
-2z"/>
<path d="M4406 651 c-16 -3 -31 -12 -34 -19 -3 -10 5 -12 34 -6 45 8 51 11 38
22 -5 5 -22 6 -38 3z"/>
<path d="M4020 636 c0 -12 10 -16 40 -16 22 0 40 5 40 10 0 6 -8 10 -17 10
-10 0 -28 3 -40 6 -17 5 -23 2 -23 -10z"/>
<path d="M4134 631 c-13 -14 1 -21 41 -21 25 0 45 4 45 9 0 9 -77 20 -86 12z"/>
<path d="M4263 633 c-23 -9 -13 -23 16 -23 35 0 61 9 61 21 0 9 -56 11 -77 2z"/>
<path d="M3937 598 c-25 -43 -6 -59 21 -17 19 31 21 49 4 49 -4 0 -15 -14 -25
-32z"/>
<path d="M906 581 c-8 -13 26 -71 42 -71 17 0 15 7 -9 46 -22 37 -25 39 -33
25z"/>
<path d="M3871 498 c-13 -22 -16 -34 -9 -37 14 -5 59 49 52 61 -10 15 -22 8
-43 -24z"/>
<path d="M966 482 c-3 -5 7 -24 23 -42 35 -42 53 -24 19 20 -24 30 -34 35 -42
22z"/>
<path d="M3801 404 c-11 -15 -18 -30 -15 -35 7 -12 19 -4 44 31 17 24 18 30 6
30 -8 0 -24 -12 -35 -26z"/>
<path d="M1045 390 c-10 -17 41 -68 55 -54 7 7 1 19 -19 38 -20 19 -31 24 -36
16z"/>
<path d="M3727 322 c-30 -31 -34 -42 -14 -42 21 0 62 49 51 60 -7 7 -19 1 -37
-18z"/>
<path d="M2339 321 c-27 -22 -18 -41 11 -24 14 10 21 9 31 -3 8 -10 15 -12 22
-5 7 7 5 17 -8 31 -22 25 -27 25 -56 1z"/>
<path d="M1126 311 c-3 -5 10 -21 28 -35 44 -33 62 -14 20 20 -32 26 -40 28
-48 15z"/>
<path d="M2252 258 c-22 -13 -30 -24 -23 -31 12 -12 74 30 66 44 -8 11 -4 12
-43 -13z"/>
<path d="M2426 262 c-2 -4 10 -20 29 -35 23 -19 36 -23 41 -15 4 6 -5 21 -22
35 -31 25 -40 28 -48 15z"/>
<path d="M3636 237 c-17 -14 -25 -26 -19 -30 12 -7 63 29 63 44 0 15 -13 10
-44 -14z"/>
<path d="M1220 240 c0 -13 61 -51 72 -44 16 10 8 20 -27 37 -42 20 -45 20 -45
7z"/>
<path d="M2153 202 c-18 -9 -33 -22 -33 -29 0 -7 2 -13 5 -13 12 0 75 35 75
41 0 16 -16 16 -47 1z"/>
<path d="M2524 189 c-3 -6 -4 -11 -3 -13 54 -39 67 -45 72 -32 7 18 -59 60
-69 45z"/>
<path d="M1325 180 c-3 -5 -4 -10 -2 -10 3 0 21 -7 41 -15 29 -13 36 -13 36
-2 0 8 -11 19 -25 25 -32 15 -42 15 -50 2z"/>
<path d="M3541 171 c-36 -28 -23 -45 17 -21 32 20 43 40 20 40 -7 0 -24 -9
-37 -19z"/>
<path d="M2041 153 c-44 -18 -29 -38 17 -22 31 11 40 23 25 32 -5 2 -23 -2
-42 -10z"/>
<path d="M1435 141 c-7 -12 1 -17 42 -25 42 -9 51 9 11 23 -38 13 -45 14 -53
2z"/>
<path d="M2626 133 c-12 -12 -5 -23 25 -39 46 -23 60 -2 15 24 -19 11 -37 18
-40 15z"/>
<path d="M1923 123 c-13 -2 -23 -11 -23 -19 0 -12 7 -14 33 -9 39 9 47 13 47
26 0 9 -17 10 -57 2z"/>
<path d="M3438 114 c-28 -15 -38 -34 -18 -34 18 0 70 30 70 40 0 14 -20 12
-52 -6z"/>
<path d="M1552 108 c5 -15 78 -24 78 -10 0 13 -25 22 -57 22 -15 0 -23 -5 -21
-12z"/>
<path d="M1666 103 c-15 -16 -2 -23 40 -23 29 0 44 4 42 11 -4 12 -72 22 -82
12z"/>
<path d="M1787 103 c-16 -15 -5 -23 33 -23 29 0 40 4 40 15 0 10 -10 15 -33
15 -19 0 -37 -3 -40 -7z"/>
<path d="M2726 75 c-5 -13 40 -35 71 -35 27 0 7 23 -29 36 -30 10 -37 10 -42
-1z"/>
<path d="M3340 73 c-8 -2 -21 -7 -29 -9 -10 -3 -11 -8 -4 -15 14 -14 86 7 78
22 -7 10 -21 10 -45 2z"/>
<path d="M2840 41 c0 -12 7 -15 53 -25 20 -5 27 -3 27 9 0 8 -8 15 -17 15 -10
0 -28 3 -40 6 -14 4 -23 2 -23 -5z"/>
<path d="M3218 43 c-17 -3 -28 -11 -28 -20 0 -11 6 -14 23 -9 12 3 30 6 40 6
9 0 17 7 17 15 0 8 -6 14 -12 14 -7 -1 -25 -4 -40 -6z"/>
<path d="M2955 20 c-3 -5 0 -10 8 -10 8 0 29 -3 46 -6 24 -5 31 -3 31 10 0 12
-10 16 -39 16 -22 0 -43 -4 -46 -10z"/>
<path d="M3070 15 c0 -13 9 -16 43 -13 23 2 42 8 42 13 0 6 -19 11 -42 13 -34
3 -43 0 -43 -13z"/>
</g>
</svg>
